<!-- made WITHOUT inkscape because it fucking sucks -->
<!-- made in notepad++ and firefox -->
<svg width="64" height="64" xmlns="http://www.w3.org/2000/svg">
  <rect x="0" y="0" width="64" height="64" fill="black"/>
	<defs>
		<linearGradient id="light-grad" x1="0" x2="0" y1="0" y2="100%">
			<stop offset="0" stop-color="#a0a0a0"/>
			<stop offset="100%" stop-color="white"/>
		</linearGradient>
	</defs>
  <path d="M 5 13 L 13 13 L 13 5 L 35 5 L 35 13 L 43 13 L 43 29 L 53 29 L 53 21 L 59 21 L 59 43 L 51 43 L 51 53 L 51 53 L 59 53 L 59 59 L 45 59 L 45 51 L 37 51 L 37 45 L 45 45 L 45 35 L 19 35 L 19 53 L 35 53 L 35 59 L 13 59 L 13 51 L 5 51 L 5 37 L 13 37 L 13 27 L 5 27 Z M 19 11 L 29 11 L 29 29 L 19 29 Z" fill="url(#light-grad)" stroke-width="1" fill-rule="evenodd"/>
  <!-- shine line -->
  <line x1="13" y1="5.5" x2="35" y2="5.5" stroke="white" stroke-width="1"/>
  <line x1="5" y1="13.5" x2="13" y2="13.5" stroke="white" stroke-width="1"/>
  <line x1="35" y1="13.5" x2="43" y2="13.5" stroke="white" stroke-width="1"/>
  <line x1="5" y1="37.5" x2="13" y2="37.5" stroke="white" stroke-width="1"/>
  <line x1="19" y1="29.5" x2="29" y2="29.5" stroke="white" stroke-width="1"/>
  <line x1="43" y1="29.5" x2="53" y2="29.5" stroke="white" stroke-width="1"/>
  <line x1="53" y1="21.5" x2="59" y2="21.5" stroke="white" stroke-width="1"/>
  <line x1="37" y1="45.5" x2="45" y2="45.5" stroke="white" stroke-width="1"/>
  <line x1="19" y1="53.5" x2="35" y2="53.5" stroke="white" stroke-width="1"/>
  <line x1="51" y1="53.5" x2="59" y2="53.5" stroke="white" stroke-width="1"/>
  
  <line x1="13" y1="58.5" x2="59" y2="58.5" stroke="#00000080" stroke-width="1"/>
</svg>