<!-- made WITHOUT inkscape because it fucking sucks -->
<!-- made in notepad++ and firefox -->
<svg width="64" height="64" xmlns="http://www.w3.org/2000/svg">
  <rect x="0" y="0" width="64" height="64" fill="black"/>
	<defs>
		<linearGradient id="top-grad" x1="0" x2="0" y1="0" y2="100%">
			<stop offset="0" stop-color="#a0a0a0"/>
			<stop offset="100%" stop-color="white"/>
		</linearGradient>
		<linearGradient id="bottom-grad" x1="0" x2="0" y1="0" y2="100%">
			<stop offset="0" stop-color="black"/>
			<stop offset="100%" stop-color="#404040"/>
		</linearGradient>
		<linearGradient id="left-grad" x1="0" x2="0" y1="0" y2="100%">
			<stop offset="0" stop-color="#606060"/>
			<stop offset="100%" stop-color="#808080"/>
		</linearGradient>
		<linearGradient id="right-grad" x1="0" x2="0" y1="0" y2="100%">
			<stop offset="0" stop-color="#202020"/>
			<stop offset="100%" stop-color="#404040"/>
		</linearGradient>
	</defs>
  <!-- top -->
  <path d="M 2 1 L 62 1 L 58 5 L 6 5 Z" fill="url(#top-grad)"/>
  <!-- bottom -->
  <path d="M 2 63 L 62 63 L 58 59 L 6 59 Z" fill="url(#bottom-grad)"/>
  <!-- left -->
  <path d="M 1 2 L 1 62 L 5 58 L 5 6 Z" fill="url(#left-grad)"/>
  <!-- right -->
  <path d="M 63 2 L 63 62 L 59 58 L 59 6 Z" fill="url(#right-grad)"/>
  <!-- shine line -->
  <line x1="1" y1="1.5" x2="63" y2="1.5" stroke="#ffffff80" stroke-width="1"/>
  <line x1="1" y1="62.5" x2="63" y2="62.5" stroke="#00000080" stroke-width="1"/>
</svg>