<!-- made WITHOUT inkscape because it fucking sucks -->
<!-- made in notepad++ and firefox -->
<svg width="64" height="64" xmlns="http://www.w3.org/2000/svg">
  <rect x="0" y="0" width="64" height="64" fill="black"/>
	<defs>
		<linearGradient id="1-grad" x1="0" x2="0" y1="0" y2="100%">
			<stop offset="0" stop-color="#a0a0a0"/>
			<stop offset="100%" stop-color="white"/>
		</linearGradient>
		<linearGradient id="2-grad" x1="0" x2="0" y1="0" y2="100%">
			<stop offset="0" stop-color="#606060"/>
			<stop offset="100%" stop-color="#808080"/>
		</linearGradient>
		<linearGradient id="3-grad" x1="0" x2="0" y1="0" y2="100%">
			<stop offset="0" stop-color="#202020"/>
			<stop offset="100%" stop-color="#303030"/>
		</linearGradient>
	</defs>
  
  <path d="M 1 1 L 46 1 L 1 7 Z" fill="url(#1-grad)"/>
  <path d="M 63 1 L 63 7 L 31 7 Z" fill="url(#2-grad)"/>
  
  <rect x="1" y="9" width="22" height="6" fill="url(#3-grad)"/>
  <path d="M 25 9 L 31 15 L 25 15 Z" fill="url(#3-grad)"/>
  <path d="M 63 9 L 63 15 L 49 9 Z" fill="url(#3-grad)"/>
  
  <path d="M 1 17 L 7 17 L 24 23 L 1 23 Z" fill="url(#1-grad)"/>
  <path d="M 25 17 L 44 17 L 38 23 L 25 23 Z" fill="url(#2-grad)"/>
  <path d="M 46 17 L 63 17 L 63 23 L 40 23 Z" fill="url(#1-grad)"/>
  
  <path d="M 33 25 L 63 25 L 63 31 Z" fill="url(#3-grad)"/>
  
  <rect x="1" y="33" width="14" height="6" fill="url(#2-grad)"/>
  <rect x="17" y="33" width="46" height="6" fill="url(#1-grad)"/>
  
  <path d="M 1 41 L 31 47 L 1 47 Z" fill="url(#3-grad)"/>
  <path d="M 46 41 L 63 41 L 63 47 L 40 47 Z" fill="url(#3-grad)"/>
  
  <path d="M 1 49 L 7 49 L 1 55 Z" fill="url(#1-grad)"/>
  <rect x="9" y="49" width="14" height="6" fill="url(#1-grad)"/>
  <path d="M 25 49 L 63 49 L 63 55 L 37 55 Z" fill="url(#2-grad)"/>
  
  <path d="M 1 57 L 38 57 L 26 63 L 1 63 Z" fill="url(#3-grad)"/>
  <path d="M 41 63 L 47 63 L 47 57 Z" fill="url(#3-grad)"/>
  
  <!-- shine line -->
  <line x1="1" y1="1.5" x2="63" y2="1.5" stroke="#ffffff80" stroke-width="1"/>
  <line x1="1" y1="62.5" x2="63" y2="62.5" stroke="#00000080" stroke-width="1"/>
</svg>